PathFileType	4	(X/Y/Z)	RBDS07static.trc
DataRate	CameraRate	NumFrames	NumMarkers	Units	OrigDataRate	OrigDataStartFrame	OrigNumFrames
150.000000	150.000000	4	48	mm	150.000000	131	150
Frame#	Time	L.Ankle			L.Ankle.Medial			L.ASIS			L.GTR			L.Heel.Bottom			L.Heel.Lateral			L.Heel.Top			L.HF			L.Iliac.Crest			L.Knee			L.Knee.Medial			L.MT1			L.MT2			L.MT5			L.PSIS			L.Shank.Bottom.Lateral			L.Shank.Bottom.Medial			L.Shank.Top.Lateral			L.Shank.Top.Medial			L.Thigh.Bottom.Lateral			L.Thigh.Bottom.Medial			L.Thigh.Top.Lateral			L.Thigh.Top.Medial			L.TT			R.Ankle			R.Ankle.Medial			R.ASIS			R.GTR			R.Heel.Bottom			R.Heel.Lateral			R.Heel.Top			R.HF			R.Iliac.Crest			R.Knee			R.Knee.Medial			R.MT1			R.MT2			R.MT5			R.PSIS			R.Shank.Bottom.Lateral			R.Shank.Bottom.Medial			R.Shank.Top.Lateral			R.Shank.Top.Medial			R.Thigh.Bottom.Lateral			R.Thigh.Bottom.Medial			R.Thigh.Top.Lateral			R.Thigh.Top.Medial			R.TT			
		X1	Y1	Z1	X2	Y2	Z2	X3	Y3	Z3	X4	Y4	Z4	X5	Y5	Z5	X6	Y6	Z6	X7	Y7	Z7	X8	Y8	Z8	X9	Y9	Z9	X10	Y10	Z10	X11	Y11	Z11	X12	Y12	Z12	X13	Y13	Z13	X14	Y14	Z14	X15	Y15	Z15	X16	Y16	Z16	X17	Y17	Z17	X18	Y18	Z18	X19	Y19	Z19	X20	Y20	Z20	X21	Y21	Z21	X22	Y22	Z22	X23	Y23	Z23	X24	Y24	Z24	X25	Y25	Z25	X26	Y26	Z26	X27	Y27	Z27	X28	Y28	Z28	X29	Y29	Z29	X30	Y30	Z30	X31	Y31	Z31	X32	Y32	Z32	X33	Y33	Z33	X34	Y34	Z34	X35	Y35	Z35	X36	Y36	Z36	X37	Y37	Z37	X38	Y38	Z38	X39	Y39	Z39	X40	Y40	Z40	X41	Y41	Z41	X42	Y42	Z42	X43	Y43	Z43	X44	Y44	Z44	X45	Y45	Z45	X46	Y46	Z46	X47	Y47	Z47	X48	Y48	Z48	

132	0.8733333333333334	696.25146484375	113.3439712524414	1034.68359375	718.7239990234375	124.8496398925781	1117.491333007813	840.9806518554688	1083.618774414063	1089.639038085938	775.5422973632813	984.8104858398438	1046.60791015625	637.377197265625	39.5811653137207	1080.100463867188	665.4069213867188	61.27507781982422	1038.8701171875	644.88623046875	87.50394439697266	1082.929443359375	695.2162475585938	502.2253723144531	1045.844116210938	779.257080078125	1131.847412109375	1068.958984375	704.13916015625	560.6452026367188	1056.081665039063	713.6637573242188	537.3711547851563	1173.197265625	854.320556640625	56.04113006591797	1119.528930664063	858.06787109375	71.64263916015625	1080.1396484375	828.4535522460938	50.48399353027344	1010.908081054688	680.3627319335938	1101.648071289063	1180.193359375	688.9613647460938	202.6022644042969	1034.879638671875	646.354248046875	196.6871337890625	1068.553100585938	673.8211059570313	281.2236328125	1027.821044921875	632.103271484375	276.4520568847656	1060.764404296875	707.0628051757813	703.9224243164063	1045.194091796875	661.1771850585938	711.1663818359375	1102.162841796875	716.7276611328125	813.8395385742188	1041.85498046875	677.206298828125	820.02685546875	1099.9775390625	754.4794921875	467.3059692382813	1094.78466796875	702.6126098632813	107.6184768676758	1411.6513671875	721.5338134765625	130.9450073242188	1328.82861328125	847.8739013671875	1084.48876953125	1348.056518554688	795.234619140625	985.0001831054688	1392.900634765625	636.2176513671875	40.15945053100586	1370.216430664063	659.9412841796875	59.66250610351563	1408.925903320313	643.5684814453125	89.72191619873047	1369.51025390625	723.7036743164063	502.6325378417969	1414.23388671875	781.1854248046875	1136.572143554688	1369.658081054688	732.2903442382813	559.8443603515625	1404.843994140625	732.2341918945313	541.849609375	1288.0478515625	857.0877685546875	61.17984390258789	1328.710815429688	858.0339965820313	74.05484008789063	1369.909790039063	832.7291259765625	54.63859176635742	1433.020385742188	687.6829223632813	1106.338745117188	1270.083862304688	693.3704833984375	202.72216796875	1417.284790039063	652.8768920898438	209.2558746337891	1385.261962890625	693.75732421875	286.4967041015625	1430.511474609375	649.8223876953125	289.1125183105469	1399.231689453125	763.75	668.11669921875	1412.457885742188	696.983154296875	681.9486694335938	1384.62109375	782.0538330078125	777.058349609375	1419.8701171875	718.55029296875	789.2135620117188	1395.061767578125	777.6576538085938	469.8169555664063	1364.90234375	
133	0.88	696.2489624023438	113.3553771972656	1034.670166015625	718.7215576171875	124.8433685302734	1117.489379882813	840.93359375	1083.62255859375	1089.620727539063	775.510986328125	984.8074340820313	1046.611450195313	637.37939453125	39.57927322387695	1080.097534179688	665.3964233398438	61.26829528808594	1038.883178710938	644.8897705078125	87.50545501708984	1082.924682617188	695.2042846679688	502.2221069335938	1045.84521484375	779.2084350585938	1131.838256835938	1068.95849609375	704.1192016601563	560.6550903320313	1056.08544921875	713.6474609375	537.3681030273438	1173.197998046875	854.3253173828125	56.04856872558594	1119.53173828125	858.0667724609375	71.64354705810547	1080.135498046875	828.4528198242188	50.48873901367188	1010.904479980469	680.325439453125	1101.642333984375	1180.204345703125	688.9524536132813	202.6036987304688	1034.876831054688	646.34716796875	196.6858978271484	1068.556762695313	673.8150024414063	281.2270202636719	1027.820068359375	632.100341796875	276.4506225585938	1060.773315429688	707.037353515625	703.9213256835938	1045.187866210938	661.1597900390625	711.1605224609375	1102.14208984375	716.7069702148438	813.8338012695313	1041.8544921875	677.1791381835938	820.0216674804688	1099.970703125	754.4679565429688	467.3211975097656	1094.798217773438	702.6121826171875	107.6202850341797	1411.653442382813	721.5275268554688	130.9464111328125	1328.833251953125	847.838623046875	1084.49462890625	1348.054565429688	795.2107543945313	984.9893188476563	1392.906005859375	636.2261352539063	40.1648063659668	1370.229248046875	659.948486328125	59.66168594360352	1408.92431640625	643.5712280273438	89.71901702880859	1369.529296875	723.6917724609375	502.6269226074219	1414.240844726563	781.1455078125	1136.57470703125	1369.649291992188	732.2819213867188	559.8197631835938	1404.830322265625	732.2225952148438	541.8499755859375	1288.048950195313	857.0895385742188	61.17753982543945	1328.699096679688	858.0354614257813	74.0531005859375	1369.908935546875	832.7260131835938	54.64289093017578	1433.010498046875	687.6466064453125	1106.332641601563	1270.087158203125	693.3746948242188	202.7204284667969	1417.291259765625	652.87841796875	209.2634429931641	1385.265625	693.7473754882813	286.4966735839844	1430.519775390625	649.8156127929688	289.1019897460938	1399.238159179688	763.7489013671875	668.123779296875	1412.458740234375	696.9671630859375	681.9458618164063	1384.615844726563	782.0372924804688	777.0550537109375	1419.865478515625	718.5345458984375	789.2113647460938	1395.056518554688	777.6421508789063	469.8183898925781	1364.90087890625	
134	0.8866666666666667	696.2525634765625	113.3407897949219	1034.677734375	718.7112426757813	124.8528900146484	1117.494750976563	840.8804931640625	1083.621948242188	1089.618896484375	775.4661254882813	984.8131713867188	1046.606689453125	637.3760375976563	39.57413101196289	1080.09130859375	665.4024658203125	61.27071762084961	1038.878662109375	644.8894653320313	87.50066375732422	1082.918823242188	695.1834716796875	502.2137451171875	1045.847534179688	779.1510620117188	1131.837280273438	1068.965576171875	704.098876953125	560.6451416015625	1056.084716796875	713.6292724609375	537.364013671875	1173.201416015625	854.3251342773438	56.04962158203125	1119.5390625	858.063232421875	71.63786315917969	1080.13623046875	828.45654296875	50.47894287109375	1010.909484863281	680.28173828125	1101.635498046875	1180.204345703125	688.9422607421875	202.5943298339844	1034.877807617188	646.3458862304688	196.6764678955078	1068.556640625	673.8116455078125	281.2261657714844	1027.822875976563	632.0908813476563	276.4432373046875	1060.786865234375	707.0201416015625	703.9154663085938	1045.19091796875	661.1396484375	711.1547241210938	1102.145874023438	716.6806640625	813.830322265625	1041.8515625	677.1603393554688	820.0194702148438	1099.968994140625	754.4493408203125	467.3268432617188	1094.804565429688	702.6069946289063	107.6093826293945	1411.65283203125	721.530029296875	130.9451751708984	1328.829956054688	847.801025390625	1084.497436523438	1348.057739257813	795.1676025390625	984.9935913085938	1392.904418945313	636.2131958007813	40.15715789794922	1370.229858398438	659.9403686523438	59.66072463989258	1408.940185546875	643.5596923828125	89.71894073486328	1369.52783203125	723.6868896484375	502.6311645507813	1414.243408203125	781.0989379882813	1136.587280273438	1369.650268554688	732.27294921875	559.8416137695313	1404.846069335938	732.2203979492188	541.8441772460938	1288.05078125	857.0908203125	61.16547775268555	1328.716796875	858.0347290039063	74.06159973144531	1369.910400390625	832.7286376953125	54.63740158081055	1433.015991210938	687.6119384765625	1106.326416015625	1270.09033203125	693.3672485351563	202.7170104980469	1417.287475585938	652.8712768554688	209.2534942626953	1385.262084960938	693.7551879882813	286.4949951171875	1430.512817382813	649.814697265625	289.0940551757813	1399.239379882813	763.7303466796875	668.1132202148438	1412.464599609375	696.9641723632813	681.9427490234375	1384.62255859375	782.0264892578125	777.0545654296875	1419.865112304688	718.5147094726563	789.2090454101563	1395.052490234375	777.6373291015625	469.814453125	1364.901611328125	
135	0.8933333333333334	696.2443237304688	113.3401336669922	1034.68212890625	718.7105102539063	124.8510513305664	1117.491333007813	840.8333740234375	1083.628051757813	1089.603759765625	775.4286499023438	984.8079833984375	1046.605834960938	637.3778076171875	39.57293701171875	1080.092163085938	665.4002075195313	61.27393341064453	1038.865478515625	644.882080078125	87.50093078613281	1082.919799804688	695.1686401367188	502.2166748046875	1045.853637695313	779.09912109375	1131.839721679688	1068.958374023438	704.0903930664063	560.63623046875	1056.077880859375	713.6161499023438	537.3628540039063	1173.200073242188	854.3207397460938	56.05115509033203	1119.538208007813	858.070556640625	71.64250183105469	1080.140625	828.4537353515625	50.48219680786133	1010.905090332031	680.2384033203125	1101.627685546875	1180.2119140625	688.93115234375	202.6015472412109	1034.887817382813	646.3409423828125	196.6782836914063	1068.55419921875	673.7940673828125	281.2174987792969	1027.829345703125	632.0899047851563	276.4425659179688	1060.789672851563	707.005126953125	703.914306640625	1045.186767578125	661.1272583007813	711.1509399414063	1102.15625	716.652099609375	813.8251953125	1041.854858398438	677.1364135742188	820.0140380859375	1099.972534179688	754.4308471679688	467.3276977539063	1094.804443359375	702.6057739257813	107.6124038696289	1411.658325195313	721.5286865234375	130.9477233886719	1328.8330078125	847.7742309570313	1084.5087890625	1348.04931640625	795.143310546875	984.9944458007813	1392.895263671875	636.222900390625	40.15826416015625	1370.223876953125	659.9515991210938	59.65178298950195	1408.932006835938	643.570556640625	89.71475982666016	1369.510131835938	723.6903076171875	502.6293640136719	1414.24755859375	781.0671997070313	1136.579956054688	1369.648071289063	732.2704467773438	559.82958984375	1404.841918945313	732.2055053710938	541.84912109375	1288.05224609375	857.0906982421875	61.17976760864258	1328.69775390625	858.0394897460938	74.0594482421875	1369.913818359375	832.7261352539063	54.63887405395508	1433.023071289063	687.573974609375	1106.330078125	1270.094970703125	693.3710327148438	202.7133636474609	1417.297607421875	652.8771362304688	209.2519836425781	1385.261474609375	693.7492065429688	286.4936218261719	1430.519653320313	649.8114013671875	289.0931396484375	1399.2333984375	763.7236938476563	668.1212768554688	1412.463745117188	696.9541625976563	681.938232421875	1384.62353515625	782.0072021484375	777.057373046875	1419.864624023438	718.5046997070313	789.2110595703125	1395.065185546875	777.636474609375	469.8363952636719	1364.904296875	
